HIERARCHY
ROOT hip
{
  OFFSET 0.0 0.0 0.0
  CHANNELS 6 Xposition Yposition Zposition Zrotation Yrotation Xrotation
  JOINT torso
  {
    OFFSET 0.0 0.0 0.0
    CHANNELS 3 Zrotation Xrotation Yrotation
    JOINT neck
    {
      OFFSET -31.42098999999993 328.8025209999999 74.3554680000002
      CHANNELS 3 Zrotation Xrotation Yrotation
      JOINT head
      {
        OFFSET 3.3519900000001144 303.81732099999994 206.53942900000015
        CHANNELS 3 Zrotation Xrotation Yrotation
        End Site
        {
          OFFSET 0.0 0.0 0.0
        }
      }
    }
    JOINT left_collar
    {
      OFFSET -31.42098999999993 328.8025209999999 74.3554680000002
      CHANNELS 3 Zrotation Xrotation Yrotation
      JOINT left_upper_arm
      {
        OFFSET -124.490479 -8.162841999999841 8.226441000000023
        CHANNELS 3 Zrotation Xrotation Yrotation
        JOINT left_forearm
        {
          OFFSET -253.595764 -1.5758060000000569 105.0729980000001
          CHANNELS 3 Zrotation Xrotation Yrotation
          JOINT left_hand
          {
            OFFSET -269.48803699999996 0.1478270000000066 -55.346191999999974
            CHANNELS 3 Zrotation Xrotation Yrotation
            End Site
            {
              OFFSET 0.0 0.0 0.0
            }
          }
        }
      }
    }
    JOINT right_collar
    {
      OFFSET -31.42098999999993 328.8025209999999 74.3554680000002
      CHANNELS 3 Zrotation Xrotation Yrotation
      JOINT right_upper_arm
      {
        OFFSET 162.02484099999998 0.46441600000002836 2.2303470000001653
        CHANNELS 3 Zrotation Xrotation Yrotation
        JOINT right_forearm
        {
          OFFSET 240.01246700000004 -25.835875999999985 121.34179699999959
          CHANNELS 3 Zrotation Xrotation Yrotation
          JOINT right_hand
          {
            OFFSET 252.48539699999992 18.910399999999868 -67.53466800000001
            CHANNELS 3 Zrotation Xrotation Yrotation
            End Site
            {
              OFFSET 0.0 0.0 0.0
            }
          }
        }
      }
    }
  }
}
MOTION
Frames: 19
Frame Time: 0.01
-262.26436556872414 214.93838175291242 1390.983827317476 -0.7756041433025751 0.35092808150042504 -1.5808712479139737 0.6413321857938791 -1.3639226688526767 -0.28240187197944894 -2.684476728223307 -5.115980704899624 1.9430126634786136 0.0 0.0 0.0 4.867918958240593 -0.3912128523784613 6.594381269368883 40.84490566839015 8.176713535980006 22.978169666805478 43.238044955275825 -4.56169924002796 -11.747000616564996 0.0 0.0 0.0 1.969680268997343 -0.13629911895708416 5.434855063434044 -33.13442356428559 3.850357737746097 -31.200825141661237 -60.25928505400502 -7.521256756430055 18.812623199600537 0.0 0.0 0.0
-262.25135353503197 214.84857067982676 1390.9630779301149 -0.7770737478167175 0.313809749678052 -1.578967104784732 0.6359443852712343 -1.3581684683479867 -0.2805433497080406 -2.687616620328703 -5.117903678471373 1.9452650488028287 0.0 0.0 0.0 4.877174789037637 -0.39245473697309075 6.606567345648852 40.83819150596014 8.177330964655635 22.97278456610845 43.23062408939586 -4.558356175284793 -11.753223776660255 0.0 0.0 0.0 1.9676232515649188 -0.13659841212635218 5.456002607269466 -33.133264471522615 3.8463244831134027 -31.21002996816332 -60.21761571880128 -7.528503309740988 18.787827891831096 0.0 0.0 0.0
-262.2380528566653 214.75714528691535 1390.9422988068109 -0.7785732853040072 0.27633919209782887 -1.5773961440897568 0.6305529705181104 -1.3525415061204087 -0.2786972478640196 -2.691012960142289 -5.1197001344385065 1.9476951252132673 0.0 0.0 0.0 4.88646683362619 -0.39377403326787724 6.619452799199647 40.831365338941396 8.177995442874847 22.9672138973747 43.22357032544077 -4.5550181475214835 -11.759543372972203 0.0 0.0 0.0 1.965847268885707 -0.13692531986972803 5.477699285613025 -33.13234216019983 3.842332169120919 -31.219265882959547 -60.17587002513104 -7.5357534564057955 18.762965556736155 0.0 0.0 0.0
-262.2240867687556 214.66342428433825 1390.921164520629 -0.7801974724180757 0.23843608914618633 -1.5762422454854623 0.6252106410207298 -1.3472080830308437 -0.27689274842770223 -2.6947524962732947 -5.1213415055426115 1.9503633008900567 0.0 0.0 0.0 4.895727934390994 -0.39519434210498255 6.633248862852867 40.82448800018227 8.178732380123291 22.961426999626443 43.21707991952197 -4.551728917115879 -11.765906482121887 0.0 0.0 0.0 1.9644578589330153 -0.13728815630477775 5.50002722272822 -33.13177321523472 3.838460651520019 -31.22840188418006 -60.13390790175163 -7.543023515450432 18.737968621570197 0.0 0.0 0.0
-262.209042100531 214.56668370848286 1390.899294745686 -0.782044558093298 0.2000038188996651 -1.5755836898221336 0.6199667192158282 -1.3423324025368428 -0.27515798315367634 -2.698917546940086 -5.122808268896989 1.9533270684489126 0.0 0.0 0.0 4.904897054638381 -0.3967382645949396 6.648157659079911 40.81761754374733 8.179564168583616 22.955399368494586 43.21133572081835 -4.548529892152008 -11.772262014981264 0.0 0.0 0.0 1.9635577891385259 -0.13769507470396422 5.523064611817399 -33.13167007017586 3.8347914846552795 -31.23730041392726 -60.091628606555965 -7.550319218589157 18.712800195303725 0.0 0.0 0.0
-262.19247854830627 214.4661849036439 1390.8762580010787 -0.784213774860838 0.16093472977194237 -1.5754902593888667 0.6148659173902807 -1.338071592524703 -0.27351924543993317 -2.703582566318312 -5.1240917549735245 1.9566386288267914 0.0 0.0 0.0 4.913920736169444 -0.3984263693640853 6.66436284406252 40.810808121160434 8.180508834041891 22.949115479203915 43.20650106132734 -4.545459092911272 -11.778561565920079 0.0 0.0 0.0 1.9632438301394801 -0.13815375407542296 5.546879785128823 -33.13213700699048 3.8314062484738916 -31.245819270536064 -60.04898659308633 -7.557633117886971 18.68746346546313 0.0 0.0 0.0
-262.1739388123175 214.36120236028225 1390.8515759488357 -0.7868029536980584 0.1211155958155215 -1.5760203173055742 0.6099473597458599 -1.3345712528030829 -0.2720003178490091 -2.7088110387532516 -5.125195475109892 1.960342735436235 0.0 0.0 0.0 4.922754114288113 -0.40027624552174595 6.682021047722377 40.804109342809 8.181579013803363 22.942571049752313 43.2027141860229 -4.542550281077097 -11.784760016340112 0.0 0.0 0.0 1.9636038140948981 -0.13867110817847958 5.571525688438845 -33.13326664616244 3.828384849900367 -31.253813867184746 -60.00600334280177 -7.564942902039225 18.662008349402214 0.0 0.0 0.0
-262.1529592992303 214.25105017589874 1390.8247280269932 -0.7899063956974194 0.08043299846911231 -1.5772179605851226 0.6052438935642148 -1.3319617059330293 -0.27062194040463877 -2.7146528438047355 -5.126135889130928 1.964474857630346 0.0 0.0 0.0 4.931361439392656 -0.40230168563116997 6.701254502259257 40.79756617071785 8.182781327199681 22.9357746016395 43.20008344384573 -4.539832288922142 -11.790815864777253 0.0 0.0 0.0 1.9647140895885635 -0.13925302825052827 5.597035025122028 -33.13513708110003 3.825803848842805 -31.26113979556334 -59.962774216803055 -7.572210773747848 18.636534827093843 0.0 0.0 0.0
-262.1290810782318 214.13510601455815 1390.7951561796515 -0.7936130759014607 0.038778392751253006 -1.5791103564761722 0.6007817070343823 -1.3303550667490012 -0.2694014345634394 -2.721142208874048 -5.126942571176268 1.9690597448179146 0.0 0.0 0.0 4.939716088137626 -0.40451203477101144 6.7221451775299625 40.79121934279171 8.184116172824462 22.928748229801087 43.19868345028693 -4.537328578979261 -11.796691264585316 0.0 0.0 0.0 1.9666374527933141 -0.13990416782813142 5.623416286414085 -33.13780975691787 3.8237348596989156 -31.26765562092287 -59.91946971265896 -7.579383959935093 18.611192616688655 0.0 0.0 0.0
-262.1018607741417 214.01283163529112 1390.7622694447664 -0.7980052344453973 -0.003947364231062634 -1.5817053847643243 0.5965802554963257 -1.329843171927017 -0.2683524866149501 -2.728296335059526 -5.127657768362811 1.97411045139542 0.0 0.0 0.0 4.947800085778401 -0.4069117320932059 6.744730656078755 40.78510627708964 8.1855779538746 22.921527548135366 43.19855241153075 -4.535057058366658 -11.802351760015089 0.0 0.0 0.0 1.9694215995785418 -0.14062777508769267 5.650650832710162 -33.14132813182737 3.82224307337871 -31.273225814339373 -59.87633093004979 -7.586396331117266 18.586177142203397 0.0 0.0 0.0
-262.07088108286143 213.88378930458768 1390.725448177092 -0.8031573866845029 -0.04783021845206422 -1.5849897183055357 0.5926524803202193 -1.3304963344728127 -0.2674850825586581 -2.736114748132963 -5.128335383933705 1.9796278596174817 0.0 0.0 0.0 4.955603202136737 -0.40950006049479376 6.769001886468477 40.779262353460844 8.187155700008468 22.9141608325152 43.199690765564654 -4.533030162510474 -11.807765725426526 0.0 0.0 0.0 1.9730981063973427 -0.14142557526680055 5.678691142272748 -33.145717093605874 3.8213859344754733 -31.277723717019995 -59.83365953369376 -7.593171010671046 18.561722053358956 0.0 0.0 0.0
-262.03576060346194 213.7476536615041 1390.6840477117303 -0.8091357566352952 -0.09294001643546922 -1.5889274776002462 0.5890052835757088 -1.3323628240162315 -0.26680557528538745 -2.7445793926302473 -5.1290394528488035 1.9856007143700691 0.0 0.0 0.0 4.963121720514053 -0.41227110876501893 6.794902855441309 40.77372242644423 8.188834022436543 22.906707439860106 43.20206124732936 -4.531255209070059 -11.81290353390152 0.0 0.0 0.0 1.977681918174248 -0.14229770364734598 5.707460306799647 -33.1509830466484 3.8212119944995107 -31.281034434007843 -59.79180301922447 -7.599623775321673 18.53808885132779 0.0 0.0 0.0
-261.9961627001308 213.60421883726633 1390.637401308819 -0.8159981077731621 -0.13932860193481345 -1.5934595889572762 0.5856401989658195 -1.3354689349781426 -0.266316855836061 -2.7536554556858324 -5.129842207540579 1.992006162318738 0.0 0.0 0.0 4.970357001302064 -0.4152139398406031 6.822332125030329 40.76852239691109 8.190594311848928 22.89923563639442 43.2055904255483 -4.529735004682826 -11.817736510671898 0.0 0.0 0.0 1.9831713112662113 -0.14324268896620712 5.736852825105421 -33.157114554151136 3.821759948394105 -31.28305757187192 -59.75113656670524 -7.605666997074426 18.515554409617884 0.0 0.0 0.0
-261.95180313502954 213.45340083561337 1390.584822262999 -0.8237939148344383 -0.18702895481795237 -1.5985039561707763 0.5825541802142952 -1.339819495900473 -0.2660185952575346 -2.7632928800576675 -5.130821847128552 1.9988107690799752 0.0 0.0 0.0 4.977313962630662 -0.41831294976187466 6.851146099774489 40.763700666428555 8.192416071580036 22.891820010360004 43.210171690273505 -4.5284686671778145 -11.822235757774152 0.0 0.0 0.0 1.9895483126794435 -0.14425748784774337 5.766736709947399 -33.164083424828384 3.8230578544079687 -31.283709756170587 -59.712043090294245 -7.611213859197571 18.494397315521155 0.0 0.0 0.0
-261.9024562426222 213.29523535765657 1390.5256051139788 -0.8325647945182733 -0.23605534604114004 -1.6039565215640343 0.5797404176647633 -1.3453986906619415 -0.2659075230004419 -2.7734285025899696 -5.1320601213547405 2.0059719716992332 0.0 0.0 0.0 4.983999583489781 -0.42154839546355427 6.881163829988171 40.759299314462204 8.194278276301993 22.884538659044534 43.215669591460525 -4.527452607764878 -11.826370959745839 0.0 0.0 0.0 1.9967795807594342 -0.14533757190231858 5.79695686832389 -33.17184616557453 3.825122539294142 -31.282926878694564 -59.674893158274045 -7.616182589806795 18.474883975408964 0.0 0.0 0.0
-261.84795943997824 213.12987140970762 1390.459025955274 -0.8423450978168437 -0.2864044167766663 -1.6096932463397393 0.5771890956467494 -1.3521710962291975 -0.2659777117174868 -2.78398873278624 -5.133639825609031 2.013439908257802 0.0 0.0 0.0 4.990421513493787 -0.42489706582053477 6.912173121955847 40.75536486373858 8.19616066086679 22.877470317594266 43.221925343033384 -4.526681605196051 -11.830109287241699 0.0 0.0 0.0 2.004817765500147 -0.14647706924014536 5.827339652902597 -33.180345755450325 3.82795919502534 -31.28066603421198 -59.6400262668849 -7.620500482223782 18.45725535069934 0.0 0.0 0.0
-261.78821588617234 212.9575611648372 1390.3843419039924 -0.8531625665475109 -0.3380570330951658 -1.615572987823856 0.5748880168837233 -1.3600828819503943 -0.26622084564284076 -2.794892663174944 -5.135642285648738 2.0211595499493527 0.0 0.0 0.0 4.996586857429154 -0.4283330685653012 6.943937707938439 40.751948525298815 8.19804486987673 22.87069154546428 43.22876322827232 -4.5261499003614185 -11.833414501925226 0.0 0.0 0.0 2.013603353321796 -0.14766896057348544 5.857698428771471 -33.18951370885932 3.8315611715028672 -31.276907118892527 -59.60773461129376 -7.624107498916746 18.441715068911492 0.0 0.0 0.0
-261.72319512394563 212.7786466569795 1390.3007898609653 -0.8650389712504304 -0.3909807233659894 -1.6214411990328426 0.57282304174491 -1.3690631535587459 -0.26662645863819057 -2.8060554781703373 -5.138144899180225 2.0290730432568407 0.0 0.0 0.0 5.002501190918675 -0.4318287042564454 6.9762052139674955 40.74910584143285 8.199915426044377 22.864274031153506 43.23599759177752 -4.525852246411943 -11.836246334967754 0.0 0.0 0.0 2.0230669649497144 -0.1489053269846966 5.887839958706042 -33.19927238229699 3.835909962308583 -31.271654074700614 -59.57825012757039 -7.62695928414977 18.428419515753053 0.0 0.0 0.0
-261.6529315651789 212.59354396995423 1390.2075847497438 -0.8779906723913673 -0.44513247787255034 -1.6271343303567616 0.5709783147271235 -1.3790254528816013 -0.2671821365605397 -2.8173920048089296 -5.141218799058391 2.0371221535352535 0.0 0.0 0.0 5.008167848986938 -0.4353553961861655 7.008715640402468 40.74689567535922 8.201760494304875 22.858282045055905 43.24344009260797 -4.52578486326972 -11.838560174059552 0.0 0.0 0.0 2.0331320321587856 -0.15017764260109065 5.917571371875526 -33.209537452763264 3.8409753754651574 -31.26493576325969 -59.55173524467837 -7.6290294460393975 18.417470361011876 0.0 0.0 0.0
